<svg width="252" height="151" fill="none" xmlns="http://www.w3.org/2000/svg"><path d="M131.615 88.573c0 7.566-1.36 14.134-4.707 18.868a15.179 15.179 0 01-2.623 2.847 17.075 17.075 0 01-2.264 1.606c-.806.478-1.645.895-2.511 1.251-.885.358-1.792.656-2.716.893a23.678 23.678 0 01-7.154.677h-.065a24.481 24.481 0 01-4.115-.598l-.229-.057a15.352 15.352 0 01-.542-.137l-.646-.184-.107-.032-.528-.17-.215-.075-.359-.123c-.111-.039-.226-.079-.337-.126l-.449-.176-.082-.037a6.129 6.129 0 01-.517-.219l-.179-.08a8.955 8.955 0 01-.484-.227.662.662 0 01-.122-.061 9.077 9.077 0 01-.503-.252l-.111-.058a16.719 16.719 0 01-.484-.266l-.162-.09c-.147-.087-.294-.173-.441-.267-.043-.022-.083-.05-.126-.076-.172-.108-.358-.216-.513-.331l-.068-.047a6.32 6.32 0 01-.298-.205c-.096-.072-.261-.18-.387-.278-.126-.097-.359-.259-.52-.396-.162-.137-.434-.36-.642-.533l-.402-.36a17.529 17.529 0 01-2.271-2.523 13.54 13.54 0 01-.772-1.149 23.05 23.05 0 01-.358-.602c-.04-.064-.076-.133-.112-.201-.1-.177-.193-.361-.287-.544-.093-.184-.129-.267-.19-.404v-.018a15.032 15.032 0 01-.176-.414.051.051 0 010-.022 7.714 7.714 0 01-.15-.407l-.065-.194c0-.026 0-.051-.025-.08a8.328 8.328 0 01-.09-.292c-.028-.097-.075-.252-.107-.378-.033-.126-.054-.205-.08-.31 0-.039-.02-.079-.028-.115a7.306 7.306 0 01-.068-.295l-.022-.105c-.025-.119-.05-.238-.071-.36a16.823 16.823 0 01-.194-1.247c0-.144-.036-.288-.05-.432l-.05-.461-.033-.425c0-.188-.025-.36-.036-.566-.01-.206 0-.36-.025-.544v-.739c-.004-2.58.147-5.159.452-7.72.054-.498.115-.999.176-1.496.061-.5.122-1.001.187-1.499l.096-.753a684.554 684.554 0 00.57-4.399c.553-4.503.88-8.6.14-11.403a9.247 9.247 0 00-.168-.562 5.742 5.742 0 00-.2-.522 581.002 581.002 0 01-4.471 9.248 651.788 651.788 0 01-6.472 12.78 726.655 726.655 0 01-5.654 10.661c-.194.36-.384.72-.575 1.059a945.234 945.234 0 01-3.013 5.476c-.478.855-.957 1.696-1.435 2.522a818.018 818.018 0 01-3.947 6.928l-.577.988-.585.99c-.273.469-.549.93-.818 1.388-.215.36-.434.72-.653 1.098l-.161.267c-.133.227-.27.45-.402.674l-.718 1.218-.51.835c-.132.213-.261.426-.39.638l-.32.519-.631 1.016a225.415 225.415 0 01-3.484 5.448l-.269.403c-2.483 3.74-4.538 6.485-5.984 7.991-.359.36-.743.753-1.12 1.124l-.541.512-.524.486-.434.389c-.391.361-.79.689-1.191 1.02l-.556.45-.57.447-.553.418-.08.058-.523.36-.603.414a25.956 25.956 0 01-1.808 1.139c-.204.112-.405.238-.613.36l-.42.231c-.19.108-.384.209-.582.31l-.513.255a.585.585 0 01-.096.047 8.462 8.462 0 01-.488.231c-.1.05-.201.097-.302.14l-.409.18-.265.116c-.215.09-.427.176-.646.259-.219.083-.492.191-.739.278-.248.086-.491.172-.74.255-.322.105-.648.206-.979.296a8.247 8.247 0 01-.556.155c-.197.047-.48.122-.717.176-.07.02-.14.035-.212.047l-.456.101c-.154.032-.312.061-.466.086-.154.026-.197.04-.298.054-.1.015-.25.047-.38.062-.13.014-.323.054-.488.072a1.944 1.944 0 01-.2.029l-.647.075-.183.018-.398.033c-.165 0-.333.029-.502.036-.226 0-.452.025-.682.032-.23.007-.56 0-.84 0a28.507 28.507 0 01-16.801-5.468 28.705 28.705 0 01-10.396-14.339 28.827 28.827 0 01-.023-17.737A28.705 28.705 0 0111.75 99.061a156.352 156.352 0 003.756-3.307l1.022-.944c.814-.752 1.62-1.517 2.422-2.295.746-.721 1.489-1.456 2.228-2.205.43-.433.857-.868 1.28-1.305l.718-.749c.47-.486.933-.976 1.396-1.47a176.32 176.32 0 002.307-2.511c.34-.36.678-.753 1.015-1.135.338-.382.646-.72.965-1.081l.574-.66c.36-.432.75-.864 1.12-1.303.282-.332.562-.663.84-.995a209.548 209.548 0 004.118-5.044 227.2 227.2 0 001.61-2.072c.306-.392.607-.789.912-1.185l.678-.904.79-1.056.358-.475a240.487 240.487 0 004.564-6.392c2.981-4.323 5.84-8.74 8.57-13.222a300.975 300.975 0 003.965-6.684l.043-.075a232.236 232.236 0 001.306-2.288c.38-.674.76-1.348 1.134-2.022l.129-.234a317.735 317.735 0 002.482-4.557c.101-.18.198-.36.295-.548.097-.187.19-.36.283-.533.094-.173.252-.469.36-.703v-.018c.318-.601.634-1.207.946-1.801.169-.32.334-.642.499-.962.316-.605.624-1.207.93-1.802.348-.68.693-1.36 1.032-2.039a415.302 415.302 0 002.386-4.842c.359-.764.736-1.524 1.098-2.284.262-.552.524-1.1.779-1.647.454-.96.905-1.929 1.352-2.904A19.954 19.954 0 0180.79 2.604 19.822 19.822 0 0194.023.324c5.07.739 10.361 3.131 13.098 7.945.126.223.273.486.431.785.054.097.108.202.165.31 1.022 1.931 2.594 5.141 4.452 9.263.104.23.208.461.312.699.051.108.101.22.148.328.154.36.312.699.47 1.059a306.902 306.902 0 013.785 8.96l.265.656a315.523 315.523 0 012.293 5.89c.365.961.724 1.935 1.076 2.923a364.3 364.3 0 011.076 2.99c.361 1.028.72 2.064 1.076 3.11l.327.972.359 1.034c.28.85.559 1.704.832 2.562l.183.573c.101.32.201.645.305.969a68.062 68.062 0 00.352 1.139c.111.352.24.788.358 1.185.199.665.395 1.331.589 2 .204.72.409 1.419.606 2.132.104.36.205.739.309 1.11.161.598.323 1.2.477 1.801.072.263.136.523.204.786.338 1.306.658 2.613.962 3.92l.226.998.237 1.08c.021.094.043.184.061.278.114.522.222 1.041.33 1.556 0 .043 0 .087.025.13.072.36.14.692.208 1.038a124.803 124.803 0 01.502 2.695c.068.36.129.753.194 1.127l.064.397c.105.652.205 1.304.298 1.949.134.915.254 1.823.359 2.724.043.36.083.742.122 1.11.039.367.068.64.097.957 0 .094.018.184.025.274a71.65 71.65 0 01.201 2.63c.021.336.039.67.054.999.014.327.028.644.039.965 0 .382.022.757.029 1.131.007.375.011.743.011 1.11z" fill="#08CEC7"/><path d="M114.376 23.876c-9.637-21.296-8.994-11.615-8.994-11.615s-.643 27.104-13.494 55.484c-1.151 2.543 30.245 12.347 35.041-8.669 0 .011-6.368-21.538-12.553-35.2z" fill="url(#paint0_linear_1076_5514)"/><path d="M181.839 96.986a12.959 12.959 0 01-1.134 4.993 18.244 18.244 0 01-9.769 9.479c-2.514 1.079-5.446 1.618-8.797 1.618a30.627 30.627 0 01-6.928-.721 19.54 19.54 0 01-5.665-2.259 19.298 19.298 0 01-4.664-4.038 24.025 24.025 0 01-3.25-5.095 26.69 26.69 0 01-2.017-6.017 32.693 32.693 0 01-.699-6.798 30.245 30.245 0 011.69-10.448 22.248 22.248 0 014.843-7.898 21.16 21.16 0 017.387-4.997 23.855 23.855 0 019.03-1.715c3.896 0 7.365.78 10.405 2.342 3.04 1.56 5.37 3.49 6.992 5.786 1.617 2.298 2.426 4.47 2.429 6.514a4.26 4.26 0 01-1.159 2.954 3.752 3.752 0 01-2.87 1.286c-1.246 0-2.181-.296-2.806-.89a12.257 12.257 0 01-2.084-3.066c-1.27-2.401-2.764-4.193-4.481-5.375-1.717-1.182-3.835-1.775-6.354-1.78-4.009 0-7.199 1.528-9.572 4.583-2.373 3.055-3.56 7.397-3.563 13.024 0 3.757.527 6.88 1.579 9.368 1.052 2.488 2.54 4.351 4.463 5.588a12.317 12.317 0 006.763 1.845c2.801 0 5.171-.698 7.111-2.094 1.939-1.395 3.401-3.445 4.384-6.15.335-1.117.857-2.17 1.543-3.113.61-.803 1.596-1.207 2.952-1.207a4.114 4.114 0 012.989 1.222 4.082 4.082 0 011.252 3.059zm9.16 10.12V69.027c0-1.979.448-3.463 1.345-4.453a4.499 4.499 0 013.48-1.484 4.644 4.644 0 013.563 1.47c.906.977 1.361 2.467 1.363 4.467v38.079c0 2.003-.455 3.499-1.363 4.486a4.606 4.606 0 01-3.563 1.484 4.46 4.46 0 01-3.462-1.502c-.911-.997-1.366-2.486-1.363-4.468zm57.227-9.36a14.248 14.248 0 01-2.25 7.879c-1.499 2.328-3.694 4.152-6.583 5.473-2.889 1.321-6.314 1.981-10.275 1.978-4.75 0-8.669-.902-11.757-2.706a15.63 15.63 0 01-5.335-5.184c-1.366-2.162-2.05-4.266-2.052-6.312a4.281 4.281 0 011.272-3.093 4.258 4.258 0 013.098-1.23 3.69 3.69 0 012.608.986 7.785 7.785 0 011.822 2.937 19.601 19.601 0 001.988 3.858 8.06 8.06 0 003.003 2.555c1.292.67 2.987 1.005 5.087 1.005 2.892 0 5.24-.676 7.043-2.028 1.803-1.353 2.706-3.04 2.709-5.063a5.36 5.36 0 00-1.461-3.905 9.359 9.359 0 00-3.774-2.291c-1.542-.531-3.605-1.092-6.189-1.683a45.136 45.136 0 01-8.685-2.85c-2.2-.98-4.11-2.514-5.547-4.453-1.37-1.878-2.055-4.213-2.052-7.004a12.06 12.06 0 012.152-7.09c1.436-2.066 3.525-3.654 6.268-4.763 2.744-1.11 5.962-1.666 9.655-1.669a23.82 23.82 0 017.667 1.106 16.196 16.196 0 015.381 2.933 12.252 12.252 0 013.118 3.844 8.843 8.843 0 01.986 3.924 4.651 4.651 0 01-1.23 3.149 3.949 3.949 0 01-3.071 1.401c-1.115 0-1.963-.28-2.544-.843a11.24 11.24 0 01-1.887-2.752 12.489 12.489 0 00-3.154-4.27c-1.227-1.023-3.196-1.534-5.909-1.534-2.518 0-4.551.556-6.099 1.668-1.547 1.112-2.318 2.446-2.314 4.003a4.075 4.075 0 00.79 2.522 6.623 6.623 0 002.152 1.8c.887.494 1.822.892 2.791 1.19.94.283 2.495.7 4.664 1.25a73.519 73.519 0 017.373 2.111 22.43 22.43 0 015.615 2.803 11.512 11.512 0 013.609 4.173c.878 1.674 1.317 3.732 1.317 6.175z" fill="#08CEC7"/><path d="M84.716 132.121h-8.678c-.01.928.199 1.846.61 2.677a4.084 4.084 0 001.53 1.72 4.06 4.06 0 002.215.615c.492.005.982-.058 1.457-.188a4.76 4.76 0 001.274-.587 9.7 9.7 0 001.14-.857c.36-.303.797-.721 1.35-1.24a1.43 1.43 0 01.972-.295c.4-.022.796.106 1.108.36a1.357 1.357 0 01.42 1.081c-.03.504-.193.991-.47 1.412a5.604 5.604 0 01-1.435 1.549 7.943 7.943 0 01-2.39 1.233 10.228 10.228 0 01-3.307.49c-2.849 0-5.065-.816-6.648-2.447-1.584-1.631-2.374-3.845-2.372-6.643a11.123 11.123 0 01.585-3.668 8.085 8.085 0 011.704-2.882 7.426 7.426 0 012.766-1.852 9.891 9.891 0 013.642-.645 8.58 8.58 0 014.46 1.102 7.269 7.269 0 012.79 2.846 7.543 7.543 0 01.926 3.56c0 1.122-.32 1.842-.958 2.162a5.967 5.967 0 01-2.69.497zm-8.678-2.522h8.047c-.11-1.525-.519-2.665-1.227-3.419a3.685 3.685 0 00-1.281-.871 3.68 3.68 0 00-1.525-.264 3.541 3.541 0 00-2.723 1.149c-.71.762-1.14 1.894-1.291 3.398v.007zm29.132-5.167v.541a7.814 7.814 0 012.558-2.281 6.807 6.807 0 013.197-.72 6.342 6.342 0 013.135.767 4.852 4.852 0 012.063 2.162c.295.549.488 1.147.571 1.765.096.801.139 1.607.129 2.414v8.287a2.952 2.952 0 01-.61 2.025 2.013 2.013 0 01-1.582.684 2.052 2.052 0 01-1.611-.699 2.948 2.948 0 01-.617-2.01v-7.415c0-1.47-.203-2.594-.61-3.372-.407-.779-1.216-1.168-2.429-1.168a3.6 3.6 0 00-2.153.721 4.098 4.098 0 00-1.435 1.949c-.215.667-.323 1.906-.323 3.725v5.581c0 .905-.211 1.582-.627 2.032a2.088 2.088 0 01-1.618.678 2.013 2.013 0 01-1.575-.699 2.944 2.944 0 01-.617-2.011v-12.891a2.819 2.819 0 01.552-1.902 1.91 1.91 0 011.51-.627 2.07 2.07 0 011.059.277c.326.199.587.488.753.833.2.422.296.887.28 1.354zm37.484 7.689h-8.679c-.01.928.199 1.846.61 2.677a4.09 4.09 0 001.531 1.72 4.06 4.06 0 002.215.615 5.3 5.3 0 001.456-.188 4.755 4.755 0 001.274-.587c.4-.256.781-.543 1.137-.857.35-.303.799-.716 1.349-1.24.279-.213.626-.318.976-.295.4-.022.794.106 1.105.36a1.36 1.36 0 01.424 1.081 2.94 2.94 0 01-.47 1.412 5.623 5.623 0 01-1.435 1.549 7.938 7.938 0 01-2.39 1.233 10.226 10.226 0 01-3.308.49c-2.848 0-5.064-.816-6.648-2.447-1.583-1.631-2.375-3.845-2.375-6.643a11.095 11.095 0 01.589-3.668 8.083 8.083 0 011.704-2.882 7.4 7.4 0 012.766-1.852 9.89 9.89 0 013.641-.645 8.582 8.582 0 014.46 1.102 7.273 7.273 0 012.791 2.846 7.537 7.537 0 01.926 3.56c0 1.122-.321 1.842-.962 2.162a5.95 5.95 0 01-2.687.497zm-8.679-2.522h8.048c-.11-1.525-.521-2.665-1.231-3.419a3.675 3.675 0 00-1.279-.871 3.64 3.64 0 00-1.523-.264 3.542 3.542 0 00-2.723 1.149c-.71.762-1.141 1.894-1.292 3.398v.007zm29.506 4.05v3.721c0 .904-.212 1.581-.635 2.032a2.1 2.1 0 01-1.611.678 2.014 2.014 0 01-1.575-.685 2.925 2.925 0 01-.617-2.025v-12.397c0-2.003.717-3.005 2.152-3.005a1.788 1.788 0 011.593.703c.371.625.558 1.344.538 2.071a7.813 7.813 0 011.633-2.071 3.363 3.363 0 012.235-.703 5.724 5.724 0 012.716.703c.878.48 1.316 1.1 1.316 1.859a1.87 1.87 0 01-.509 1.297c-.331.35-.783.558-1.263.58a5.694 5.694 0 01-1.177-.299 5.43 5.43 0 00-1.65-.303 2.402 2.402 0 00-1.593.512 3.338 3.338 0 00-.961 1.527 10.728 10.728 0 00-.47 2.407c-.082.934-.122 2.067-.122 3.398zm34.689-8.417v12.945a13.741 13.741 0 01-.47 3.823 6.16 6.16 0 01-1.514 2.644 6.34 6.34 0 01-2.723 1.55 14.691 14.691 0 01-4.183.504 12.062 12.062 0 01-4.097-.645 7.022 7.022 0 01-2.781-1.664 3.056 3.056 0 01-.976-2.097 1.73 1.73 0 01.553-1.33 1.9 1.9 0 011.334-.515 2.173 2.173 0 011.705.865c.24.295.488.591.742.89.247.292.53.55.843.767.34.226.718.386 1.116.472.49.112.991.165 1.493.159a6.052 6.052 0 002.676-.483 2.74 2.74 0 001.331-1.348c.258-.585.41-1.212.449-1.852.043-.658.075-1.716.096-3.174a7.326 7.326 0 01-2.364 2.187 6.432 6.432 0 01-3.193.75 6.743 6.743 0 01-3.896-1.142 7.31 7.31 0 01-2.558-3.2 11.765 11.765 0 01-.897-4.752c-.016-1.23.168-2.454.545-3.624a7.58 7.58 0 011.554-2.724 6.588 6.588 0 012.325-1.676 7.298 7.298 0 012.891-.562 6.912 6.912 0 013.269.721 7.942 7.942 0 012.568 2.277v-.605a2.593 2.593 0 01.571-1.802 1.853 1.853 0 011.46-.637c.856 0 1.426.279 1.708.839.324.77.469 1.604.423 2.439zm-12.858 5.649c0 1.804.392 3.17 1.177 4.097a3.815 3.815 0 003.049 1.387 3.97 3.97 0 002.088-.594 4.359 4.359 0 001.604-1.802 6.365 6.365 0 00.617-2.915c0-1.82-.398-3.235-1.195-4.244a3.82 3.82 0 00-3.146-1.52 3.686 3.686 0 00-3.05 1.441c-.763.98-1.144 2.363-1.144 4.15zm30.04-15.312h2.195c.553 0 .829.079.829.245 0 .087-.301.44-.911 1.059-.61.62-1.216 1.215-1.834 1.78a7.8 7.8 0 01-1.288 1.031 4.313 4.313 0 01-1.98.472c-.466 0-.717-.137-.717-.407.065-.351.21-.681.423-.966l.717-1.369a4.489 4.489 0 011.105-1.521 2.545 2.545 0 011.461-.324zm.764 8.928v12.88a2.89 2.89 0 01-.632 2.025 2.088 2.088 0 01-1.611.685 2.022 2.022 0 01-1.585-.699 2.98 2.98 0 01-.61-2.011v-12.736a2.888 2.888 0 01.61-1.989 2.047 2.047 0 011.585-.67 2.14 2.14 0 011.611.67c.441.51.668 1.171.632 1.845zm24.823 13.079a13.809 13.809 0 01-3.111 1.884 8.711 8.711 0 01-3.376.627 6.328 6.328 0 01-2.995-.677 4.932 4.932 0 01-1.995-1.834 4.78 4.78 0 01-.696-2.522 4.523 4.523 0 011.151-3.12 5.796 5.796 0 013.172-1.73c.28-.065.978-.211 2.095-.439a87.191 87.191 0 002.87-.631c.797-.19 1.661-.42 2.594-.692-.054-1.174-.29-2.039-.717-2.586-.427-.548-1.285-.826-2.594-.826-1.127 0-1.977.159-2.544.472a4.157 4.157 0 00-1.464 1.42c-.265.432-.552.849-.861 1.25-.168.202-.527.303-1.076.303a1.901 1.901 0 01-1.295-.483 1.563 1.563 0 01-.542-1.232 3.766 3.766 0 01.829-2.284 5.926 5.926 0 012.583-1.831 11.604 11.604 0 014.373-.72c1.952 0 3.485.23 4.6.692a4.308 4.308 0 012.368 2.197c.459 1.002.689 2.323.689 3.963v2.663c0 .728 0 1.538-.026 2.432.009.889.149 1.772.417 2.619.2.568.339 1.157.412 1.755a1.643 1.643 0 01-.642 1.25 2.15 2.15 0 01-1.453.562 1.96 1.96 0 01-1.353-.645 9.7 9.7 0 01-1.413-1.837zm-.291-6.449c-.928.315-1.876.569-2.838.76-1.241.266-2.1.462-2.576.587a3.43 3.43 0 00-1.366.721 1.883 1.883 0 00-.65 1.524 2.264 2.264 0 00.764 1.722 2.807 2.807 0 001.999.72 5.157 5.157 0 002.432-.58 3.855 3.855 0 001.633-1.491c.401-.675.602-1.785.602-3.329v-.634z" fill="#073C42"/><path d="M49.79 141.351l-.542.512a.305.305 0 01-.111-.259c2.827-55.344-9.493-72.566-9.6-72.735l-.022-.033a.318.318 0 01.086-.418.312.312 0 01.448.065c.108.166 12.529 17.46 9.74 72.868zm13.447-19.203a372.13 372.13 0 01-2.587 4.226c10.594-33.24 5.543-72.417 1.392-93.49.323-.595.639-1.186.95-1.78 4.033 19.88 9.318 57.76.245 91.044zm66.175-52.692c-8.729 16.022-23.051 27.53-36.806 35.507-.14-.242-.273-.494-.399-.746-.064-.134-.129-.267-.19-.404 13.949-8.099 28.476-19.862 36.978-36.32.148.655.284 1.304.417 1.963z" fill="#00EBEB"/><path d="M126.89 58.925a89.224 89.224 0 01-6.322 14.386c-6.817 12.344-16.449 22.428-28.734 30.07a10.552 10.552 0 01-.222-.624c12.137-7.566 21.662-17.553 28.396-29.76a88.874 88.874 0 006.573-15.182c.104.368.205.739.309 1.11z" fill="#00EBEB"/><path d="M248.226 57.765c.65.005 1.289.173 1.858.49.597.32 1.087.808 1.41 1.405a3.83 3.83 0 010 3.787 3.55 3.55 0 01-1.399 1.405 3.772 3.772 0 01-3.756 0 3.56 3.56 0 01-1.4-1.405 3.797 3.797 0 010-3.787 3.478 3.478 0 011.414-1.405 3.882 3.882 0 011.873-.49zm0 .63a3.2 3.2 0 00-1.547.411 2.916 2.916 0 00-1.18 1.171 3.154 3.154 0 000 3.156c.272.494.677.9 1.17 1.171a3.139 3.139 0 003.132 0 2.95 2.95 0 001.166-1.17 3.175 3.175 0 000-3.157 2.878 2.878 0 00-1.177-1.17 3.219 3.219 0 00-1.564-.412zm-1.654 5.264v-4.082h1.41a3.42 3.42 0 011.037.112c.208.073.387.212.509.396.123.175.189.384.19.598a1.087 1.087 0 01-.319.778 1.25 1.25 0 01-.843.36 1.2 1.2 0 01.358.217c.228.248.428.52.6.81l.495.8h-.8l-.359-.645a3.308 3.308 0 00-.685-.95.836.836 0 00-.524-.141h-.388v1.736l-.681.011zm.653-2.298h.796c.271.026.543-.033.779-.17a.56.56 0 00.208-.454.553.553 0 00-.101-.324.589.589 0 00-.276-.213 2.048 2.048 0 00-.66-.072h-.746v1.233z" fill="#08CEC7"/><defs><linearGradient id="paint0_linear_1076_5514" x1="88.286" y1="27.205" x2="129.488" y2="71.625" gradientUnits="userSpaceOnUse"><stop stop-color="#08AFA3"/><stop offset=".23" stop-color="#08B6AC"/><stop offset=".59" stop-color="#08CAC3"/><stop offset=".65" stop-color="#08CEC7"/></linearGradient></defs></svg>