<svg width="150" height="32" viewBox="0 0 150 32" fill="none" xmlns="http://www.w3.org/2000/svg">
<g clip-path="url(#clip0_4427_474)">
<path d="M43.9532 11.8462C43.7423 11.6602 43.5132 11.4954 43.2692 11.3543C42.8809 11.1233 42.4787 10.9161 42.0647 10.7339C41.5673 10.5159 41.0525 10.3391 40.5256 10.2053C39.9753 10.0662 39.4095 9.99591 38.8415 9.99601C38.0486 9.94278 37.2583 10.1311 36.5774 10.5356C36.3273 10.7119 36.1264 10.9477 35.9932 11.221C35.86 11.4944 35.7988 11.7965 35.8153 12.0995C35.8047 12.3231 35.8423 12.5464 35.9257 12.7546C36.009 12.9628 36.1361 13.1511 36.2986 13.3072C36.7199 13.6608 37.213 13.9211 37.7447 14.0708C38.3842 14.2788 39.186 14.5064 40.1501 14.7536C41.2696 15.0103 42.3595 15.3793 43.403 15.8549C44.2459 16.2232 44.9755 16.8044 45.5184 17.5399C46.0501 18.3658 46.3098 19.334 46.2619 20.3115C46.2862 21.1864 46.0922 22.0538 45.6968 22.8371C45.3344 23.5258 44.8074 24.1167 44.1614 24.5588C43.4796 25.0186 42.7168 25.3485 41.9122 25.5316C41.0303 25.7369 40.1268 25.8379 39.2207 25.8327C38.2688 25.8325 37.3195 25.7353 36.3878 25.5426C35.4563 25.354 34.546 25.0749 33.6702 24.7093C32.8199 24.3575 32.0088 23.9196 31.25 23.4025L32.8821 20.2601C33.1452 20.4947 33.4317 20.7026 33.7371 20.8805C34.2134 21.1703 34.7104 21.4255 35.2242 21.6441C35.8468 21.9128 36.4909 22.1301 37.1499 22.2938C37.841 22.4694 38.5517 22.5582 39.2653 22.5581C40.2814 22.5581 41.0398 22.3966 41.5405 22.0736C41.7808 21.9222 41.9762 21.7106 42.1068 21.4604C42.2374 21.2102 42.2985 20.9303 42.284 20.6492C42.2951 20.3967 42.2464 20.1452 42.1419 19.9145C42.0373 19.6838 41.8798 19.4804 41.6817 19.3203C41.1717 18.9407 40.596 18.6559 39.9828 18.4797C39.2392 18.241 38.3879 17.9914 37.3804 17.7455C36.338 17.4762 35.3283 17.0958 34.3691 16.6111C33.6444 16.2524 33.0268 15.7134 32.5772 15.0473C32.152 14.3349 31.943 13.5168 31.9749 12.6905C31.9347 11.5454 32.2627 10.4171 32.9118 9.46739C33.5478 8.59102 34.4197 7.90811 35.4286 7.49606C36.5381 7.03688 37.7315 6.8082 38.9344 6.82428C39.7859 6.81929 40.6348 6.91667 41.4624 7.11428C42.229 7.29918 42.9759 7.55609 43.693 7.88152C44.3392 8.17499 44.9608 8.5187 45.5518 8.9094L43.9532 11.8462Z" fill="#00215A"/>
<path d="M55.1932 25.9575C54.1481 25.9724 53.1105 25.7815 52.141 25.3958C51.283 25.0518 50.5043 24.5402 49.8514 23.8917C49.1985 23.2432 48.685 22.4713 48.3416 21.6221C47.9988 20.7656 47.8259 19.8521 47.8323 18.9312C47.8225 17.6864 48.1307 16.4592 48.7282 15.363C49.3201 14.2802 50.1991 13.3767 51.2711 12.7493C52.4705 12.0695 53.8369 11.7303 55.2192 11.7691C56.5885 11.7314 57.9414 12.0708 59.1265 12.7493C60.1803 13.3704 61.0477 14.2574 61.6396 15.319C62.2307 16.3854 62.5353 17.5835 62.5244 18.7991C62.5244 19.0267 62.5244 19.2396 62.4984 19.4378C62.4724 19.636 62.4612 19.8049 62.4426 19.9481H51.6317C51.6671 20.6013 51.8747 21.234 52.234 21.7836C52.5709 22.2828 53.0316 22.6884 53.5723 22.962C54.1055 23.2338 54.6972 23.3748 55.2973 23.3731C56.0133 23.3768 56.7184 23.1999 57.3457 22.8592C57.9322 22.5645 58.3924 22.0722 58.6432 21.4715L61.6954 22.3159C61.3637 23.0345 60.8794 23.6742 60.2753 24.1917C59.6208 24.7547 58.8638 25.1895 58.0447 25.4729C57.1302 25.798 56.1651 25.962 55.1932 25.9575ZM51.5276 17.7418H58.8588C58.8062 17.1045 58.5997 16.489 58.2566 15.9467C57.9341 15.4473 57.4874 15.0378 56.9591 14.7573C56.4059 14.4697 55.7886 14.3233 55.1635 14.3315C54.5527 14.3247 53.9502 14.4712 53.4125 14.7573C52.8889 15.0402 52.4464 15.4494 52.1261 15.9467C51.7856 16.4899 51.5805 17.1051 51.5276 17.7418Z" fill="#00215A"/>
<path d="M74.2974 25.6931L70.208 19.7682L68.2785 21.6037V25.6931H64.7207V6.40576H68.2785V18.1529L73.9516 11.993H77.7511L72.5464 17.8115L78.1228 25.7042L74.2974 25.6931Z" fill="#00215A"/>
<path d="M79.4863 20.565V11.9822H83.0999V19.7867C83.0999 20.8329 83.2969 21.6222 83.691 22.1508C83.8908 22.4154 84.1541 22.6267 84.4571 22.7657C84.7602 22.9048 85.0935 22.9672 85.4271 22.9474C85.9003 22.9453 86.3686 22.853 86.8064 22.6758C87.2732 22.4841 87.6994 22.2077 88.063 21.8608C88.4707 21.4657 88.802 21.0004 89.0407 20.4879V11.9822H92.6543V21.758C92.6308 22.0327 92.6958 22.3077 92.8401 22.5436C93.0083 22.7185 93.2392 22.8213 93.4833 22.83V25.708C93.1115 25.7631 92.829 25.8035 92.5873 25.8291C92.3689 25.8541 92.1492 25.8675 91.9293 25.8695C91.3815 25.8917 90.8416 25.7342 90.3939 25.4217C89.9994 25.1402 89.7324 24.7171 89.6504 24.2433L89.5686 23.142C88.9739 24.0416 88.1476 24.7688 87.1744 25.2491C86.1638 25.7433 85.0492 25.9948 83.9215 25.9833C82.479 25.9833 81.3774 25.5257 80.6165 24.6104C79.8655 23.6669 79.4863 22.3307 79.4863 20.565Z" fill="#00215A"/>
<path d="M104.564 14.9153C103.548 14.9116 102.544 15.1232 101.619 15.5357C100.814 15.8925 100.158 16.5121 99.7604 17.2904V25.6933H96.1914V11.9821H99.4815V14.8088C99.9321 13.9269 100.588 13.1632 101.396 12.5805C102.11 12.0572 102.96 11.7453 103.846 11.6811C103.988 11.6929 104.131 11.6929 104.274 11.6811C104.373 11.6697 104.474 11.6836 104.567 11.7215L104.564 14.9153Z" fill="#00215A"/>
<path d="M105.486 21.6514C105.463 20.8165 105.725 19.9981 106.229 19.3277C106.782 18.6336 107.512 18.0976 108.345 17.7749C109.344 17.3819 110.414 17.1909 111.49 17.2132C112.09 17.2141 112.688 17.2582 113.282 17.3454C113.824 17.4157 114.354 17.5577 114.858 17.7675V17.004C114.88 16.6398 114.823 16.2751 114.69 15.9348C114.556 15.5946 114.35 15.2868 114.085 15.0326C113.564 14.5664 112.791 14.3315 111.754 14.3315C110.992 14.3254 110.235 14.4599 109.523 14.728C108.753 15.0298 108.018 15.4112 107.33 15.866L106.214 13.5642C107.08 12.9712 108.033 12.5131 109.04 12.206C110.034 11.9121 111.066 11.7649 112.103 11.7691C114.101 11.7691 115.657 12.2513 116.773 13.2155C117.888 14.1797 118.445 15.5735 118.445 17.3968V21.7579C118.421 22.0335 118.491 22.3092 118.646 22.5398C118.821 22.7126 119.054 22.8147 119.301 22.8262V25.7042C118.981 25.758 118.691 25.8021 118.431 25.8364C118.214 25.8702 117.995 25.8801 117.776 25.8657C117.199 25.9054 116.626 25.7415 116.159 25.4032C115.802 25.1131 115.568 24.7021 115.501 24.2505L115.423 23.5383C114.811 24.2911 114.038 24.8998 113.158 25.3202C112.278 25.7406 111.315 25.962 110.337 25.9685C109.468 25.9824 108.609 25.7858 107.835 25.3958C107.125 25.0407 106.525 24.5046 106.095 23.843C105.681 23.1865 105.469 22.4249 105.486 21.6514ZM114.207 22.3122C114.402 22.1446 114.566 21.9446 114.691 21.7212C114.8 21.5499 114.864 21.3542 114.877 21.1522V19.7866C113.981 19.4422 113.031 19.2595 112.07 19.2469C111.265 19.2149 110.469 19.4166 109.78 19.827C109.506 19.9813 109.279 20.2047 109.121 20.4744C108.964 20.744 108.882 21.0502 108.884 21.3614C108.886 21.7124 108.988 22.0558 109.177 22.3526C109.384 22.6765 109.676 22.9391 110.021 23.1125C110.442 23.3121 110.905 23.4091 111.371 23.3952C111.913 23.394 112.449 23.2893 112.951 23.0868C113.423 22.9151 113.855 22.6517 114.222 22.3122H114.207Z" fill="#F20049"/>
<path d="M121.795 6.40576H125.382V21.2769C125.382 21.9304 125.49 22.3782 125.702 22.5875C125.813 22.7005 125.947 22.7887 126.095 22.8463C126.243 22.904 126.402 22.9296 126.561 22.9215C126.871 22.9221 127.181 22.8863 127.483 22.8151C127.757 22.7515 128.022 22.6541 128.271 22.5251L128.754 25.2453C128.221 25.4889 127.659 25.6664 127.081 25.7739C126.505 25.8899 125.919 25.9514 125.33 25.9574C124.205 25.9574 123.338 25.6625 122.728 25.0727C122.408 24.7406 122.16 24.3469 122.001 23.9162C121.842 23.4854 121.774 23.0268 121.802 22.5691L121.795 6.40576Z" fill="#F20049"/>
<path d="M130.668 25.6932V11.8462H134.226V25.6895L130.668 25.6932Z" fill="#F20049"/>
<path d="M136.167 21.6514C136.149 20.8143 136.418 19.9957 136.929 19.3277C137.481 18.6345 138.21 18.0986 139.041 17.7749C140.041 17.3826 141.11 17.1916 142.186 17.2132C142.785 17.2139 143.384 17.2581 143.978 17.3454C144.521 17.4152 145.053 17.5572 145.558 17.7675V17.004C145.58 16.6394 145.523 16.2743 145.389 15.934C145.254 15.5936 145.047 15.2861 144.781 15.0326C144.265 14.5652 143.489 14.3315 142.453 14.3315C141.691 14.3254 140.935 14.4599 140.223 14.728C139.452 15.0305 138.716 15.4119 138.026 15.866L136.91 13.5642C137.776 12.9712 138.729 12.5131 139.736 12.206C140.73 11.9121 141.762 11.7649 142.799 11.7691C144.797 11.7691 146.353 12.2513 147.469 13.2155C148.584 14.1797 149.141 15.5735 149.141 17.3968V21.7579C149.117 22.0335 149.187 22.3092 149.342 22.5398C149.516 22.7132 149.75 22.8154 149.997 22.8262V25.7042C149.677 25.758 149.387 25.8021 149.127 25.8364C148.91 25.8701 148.691 25.88 148.472 25.8657C147.894 25.9046 147.32 25.7409 146.851 25.4032C146.496 25.1125 146.263 24.7016 146.197 24.2505L146.115 23.5383C145.504 24.2904 144.731 24.8987 143.852 25.3191C142.973 25.7394 142.01 25.9612 141.033 25.9685C140.164 25.9824 139.305 25.7858 138.531 25.3958C137.82 25.0428 137.219 24.5062 136.791 23.843C136.372 23.1881 136.155 22.4264 136.167 21.6514ZM144.888 22.3122C145.083 22.1446 145.247 21.9446 145.372 21.7212C145.479 21.5491 145.543 21.3539 145.558 21.1522V19.7866C145.108 19.6098 144.643 19.4771 144.167 19.3901C143.7 19.298 143.224 19.25 142.747 19.2469C141.944 19.2152 141.149 19.4169 140.461 19.827C140.187 19.9813 139.96 20.2047 139.802 20.4744C139.645 20.744 139.563 21.0502 139.565 21.3614C139.567 21.7124 139.669 22.0558 139.858 22.3526C140.064 22.6773 140.356 22.9401 140.702 23.1125C141.123 23.3125 141.586 23.4095 142.052 23.3952C142.594 23.394 143.13 23.2893 143.632 23.0868C144.1 22.9138 144.528 22.6505 144.892 22.3122H144.888Z" fill="#F20049"/>
<path d="M5.82868 22.7675C4.68884 21.6506 3.78354 20.3225 3.16473 18.8593C2.54592 17.3962 2.22578 15.8268 2.22268 14.2411C2.21957 12.6555 2.53356 11.0849 3.14664 9.61938C3.75971 8.15386 4.6598 6.8223 5.79526 5.70109C6.93072 4.57989 8.27921 3.6911 9.76335 3.08572C11.2475 2.48035 12.8381 2.1703 14.4439 2.17336C16.0497 2.17643 17.639 2.49255 19.1208 3.10359C20.6025 3.71463 21.9475 4.60856 23.0786 5.7341L19.3907 9.37572C18.6373 8.63012 17.7206 8.0653 16.7112 7.72479C15.7018 7.38428 14.6267 7.27718 13.5688 7.41174C12.3332 7.55952 11.1621 8.0381 10.1821 8.7957C9.3979 9.39507 8.75197 10.1524 8.28721 11.0174C7.82246 11.8824 7.54953 12.8352 7.48658 13.8124C7.42363 14.7896 7.5721 15.7688 7.92211 16.685C8.27213 17.6011 8.81567 18.4332 9.51659 19.1259L5.82868 22.7675Z" fill="#00215A"/>
<path d="M11.3917 29.9223C9.68523 30.0132 7.97854 29.7472 6.38332 29.1418C4.78811 28.5364 3.34034 27.6052 2.13477 26.4091L5.82268 22.7638C6.57524 23.5108 7.49174 24.0767 8.50127 24.4179C9.5108 24.7591 10.5863 24.8664 11.6445 24.7315C12.88 24.5806 14.0506 24.101 15.0313 23.3439C15.8154 22.7448 16.4613 21.9878 16.926 21.1231C17.3907 20.2585 17.6636 19.306 17.7266 18.3291C17.7895 17.3521 17.6411 16.3732 17.2911 15.4573C16.9411 14.5415 16.3976 13.7097 15.6968 13.0174L19.3847 9.37207C21.0552 11.0195 22.2059 13.1101 22.6971 15.3904C23.1883 17.6707 22.999 20.0427 22.1521 22.2189C21.3052 24.395 19.8371 26.2818 17.9258 27.6505C16.0145 29.0191 13.7422 29.8108 11.3843 29.9296L11.3917 29.9223Z" fill="#F20049"/>
<path d="M2.71389 5.35964C4.21273 5.35964 5.42778 4.15985 5.42778 2.67982C5.42778 1.1998 4.21273 0 2.71389 0C1.21505 0 0 1.1998 0 2.67982C0 4.15985 1.21505 5.35964 2.71389 5.35964Z" fill="#00215A"/>
<path d="M22.8115 32C24.3104 32 25.5254 30.8002 25.5254 29.3202C25.5254 27.8402 24.3104 26.6404 22.8115 26.6404C21.3127 26.6404 20.0977 27.8402 20.0977 29.3202C20.0977 30.8002 21.3127 32 22.8115 32Z" fill="#F20049"/>
<path d="M132.445 10.3302C133.644 10.3302 134.616 9.37036 134.616 8.18634C134.616 7.00232 133.644 6.04248 132.445 6.04248C131.245 6.04248 130.273 7.00232 130.273 8.18634C130.273 9.37036 131.245 10.3302 132.445 10.3302Z" fill="#F20049"/>
</g>
<defs>
<clipPath id="clip0_4427_474">
<rect width="150" height="32" fill="white"/>
</clipPath>
</defs>
</svg>
